<?xml version="1.0" encoding="UTF-8" standalone="no"?>
<!-- Created with Inkscape (http://www.inkscape.org/) -->

<svg
   width="158.79683mm"
   height="38.008034mm"
   viewBox="0 0 158.79683 38.008034"
   version="1.1"
   id="svg1"
   xml:space="preserve"
   xmlns="http://www.w3.org/2000/svg"
   xmlns:svg="http://www.w3.org/2000/svg"><defs
     id="defs1" /><g
     id="layer1"
     transform="translate(-32.232426,-197.81645)">
     
     <path
     class="g"
       style="fill:#ffffff"
       d="m 68.166304,235.7707 c -0.425931,-0.13956 -0.9822,-0.45816 -1.261313,-0.72242 -0.15201,-0.14392 -1.791121,-2.27462 -3.642469,-4.7349 -2.494724,-3.31527 -3.405033,-4.46127 -3.51654,-4.42702 -0.388648,0.11938 -2.575574,0.32797 -4.485153,0.42778 -2.465471,0.12888 -12.267364,0.0663 -14.243035,-0.0909 -3.961582,-0.31526 -5.354096,-0.73892 -6.633339,-2.01817 -1.69099,-1.69099 -2.237543,-4.81607 -2.141456,-12.24439 0.09005,-6.96151 0.706197,-9.51084 2.652238,-10.9737 1.413086,-1.06224 3.503759,-1.4966 8.392655,-1.74366 2.059181,-0.10406 10.640816,-0.0535 11.308391,0.0667 l 0.282205,0.0508 -0.23097,0.66403 c -0.184313,0.52989 -0.231961,0.85119 -0.235876,1.59059 l -0.0049,0.92657 -5.60575,4.1e-4 c -5.914953,4.2e-4 -7.565742,0.076 -9.312032,0.42643 -1.033122,0.2073 -1.811741,0.52363 -2.212241,0.89876 -0.589884,0.55253 -0.990555,1.78982 -1.167486,3.60527 -0.264415,2.7131 -0.18757,9.35954 0.134762,11.65577 0.36044,2.56769 1.225364,3.34692 4.057156,3.65517 2.99885,0.32644 14.531204,0.36628 16.918909,0.0584 3.62665,-0.46756 4.187391,-1.17191 4.340376,-5.45196 l 0.05547,-1.552 h -7.056058 -7.056059 v -1.6215 -1.6215 h 8.941404 c 7.092389,0 8.941001,0.024 8.939457,0.11582 -0.03097,1.8438 -0.202737,6.07094 -0.276757,6.81106 -0.124505,1.24493 -0.37793,2.33543 -0.741036,3.18872 -0.154487,0.36304 -0.269692,0.66686 -0.256009,0.67514 0.08206,0.0497 6.453957,5.94892 7.050753,6.52772 0.398858,0.38683 0.836663,0.91181 0.972899,1.16662 0.223356,0.41775 0.247702,0.55891 0.247702,1.43618 0,0.88743 -0.02289,1.01635 -0.260476,1.46746 -0.334337,0.63479 -0.935123,1.2332 -1.561393,1.5552 -0.412236,0.21195 -0.633365,0.2587 -1.32847,0.28085 -0.458653,0.0146 -0.938153,-0.008 -1.065556,-0.0493 z m -1.120501,-3.27735 c -1.093545,-1.76387 -3.58598,-4.85805 -4.376864,-5.43357 -0.366806,-0.26692 1.148674,1.95184 2.398075,3.51094 0.778862,0.97192 2.319531,2.68705 2.413728,2.68705 0.02144,0 -0.174284,-0.34399 -0.434939,-0.76442 z m 7.941324,-6.0131 c -3.854719,-0.33976 -5.868446,-1.61418 -6.493727,-4.10968 -0.321363,-1.28256 -0.345612,-1.79953 -0.390063,-8.31597 l -0.04472,-6.55549 h 1.536355 1.536355 l 0.0021,5.25829 c 0.0027,6.81975 0.0767,7.80328 0.672651,8.9431 0.894971,1.71175 3.032204,2.30236 7.849694,2.16924 3.025928,-0.0836 4.652671,-0.39954 5.918269,-1.14934 0.673691,-0.39912 1.385537,-1.13124 1.665747,-1.71317 0.517173,-1.07405 0.513988,-1.03036 0.547525,-7.50857 l 0.03106,-5.99955 h 1.570779 1.570778 v 9.45102 9.45102 h -1.575169 -1.57517 v -1.44638 -1.44637 l -0.412705,0.56062 c -1.093875,1.48592 -2.664737,2.16904 -5.563673,2.41948 -1.305867,0.11281 -5.530351,0.10772 -6.846089,-0.008 z m 52.850303,0.0488 c -3.69844,-0.32057 -5.64771,-1.22584 -6.53114,-3.03315 -0.74191,-1.51781 -0.79647,-2.13295 -0.85379,-9.62657 l -0.0487,-6.37018 h 1.58098 1.58098 l 0.0343,6.32385 c 0.0385,7.10658 0.0348,7.06487 0.71845,8.12253 0.61334,0.94896 1.70688,1.50945 3.47262,1.77988 1.27507,0.19528 5.71438,0.16961 7.06624,-0.0409 2.93592,-0.45708 4.50337,-1.53813 5.06231,-3.49138 0.26083,-0.91152 0.33222,-2.55514 0.33303,-7.66737 l 7.9e-4,-5.02665 h 1.52884 1.52884 v 9.45102 9.45102 h -1.52884 -1.52884 l -0.005,-1.45935 -0.005,-1.45935 -0.20333,0.27483 c -0.81746,1.10487 -1.83016,1.87181 -2.93072,2.21948 -1.37236,0.43353 -2.39449,0.53341 -5.75073,0.56198 -1.70721,0.0145 -3.29164,0.0102 -3.52097,-0.01 z m 46.56016,6e-5 c -2.919,-0.16773 -4.18306,-0.53003 -5.2493,-1.50451 -1.00942,-0.92256 -1.31485,-1.87962 -1.32006,-4.1365 -0.007,-2.82171 0.55436,-4.11621 2.16276,-4.99161 1.18184,-0.64324 3.51943,-0.8408 9.15203,-0.77349 4.19529,0.0501 5.38841,0.13134 6.42359,0.43716 0.72912,0.21541 1.63732,0.78266 1.98693,1.24103 0.14024,0.18386 0.29173,0.3343 0.33664,0.3343 0.11368,0 0.10238,-2.29504 -0.0159,-3.23864 -0.23613,-1.88317 -0.95105,-2.86196 -2.47724,-3.39156 -0.89601,-0.31092 -1.57027,-0.40126 -3.88995,-0.52117 -2.2804,-0.11789 -5.84645,0.002 -7.17568,0.24197 -1.71822,0.30972 -2.48185,1.10024 -2.48185,2.56924 v 0.44856 h -1.6215 -1.6215 v -0.77494 c 0,-1.49055 0.32178,-2.48254 1.06605,-3.28644 0.27192,-0.2937 0.69668,-0.6441 0.94391,-0.77866 1.41526,-0.77028 4.49442,-1.18443 8.78301,-1.18132 3.59072,0.003 6.17943,0.23575 7.59945,0.68444 1.93728,0.61212 3.34014,2.06852 3.71245,3.85412 0.23134,1.10954 0.31547,3.55148 0.31683,9.1965 l 0.001,5.4436 h -1.52884 -1.52884 v -1.12197 -1.12198 l -0.35872,0.43411 c -0.4821,0.5834 -1.33115,1.2049 -1.97505,1.4457 -1.09174,0.40828 -1.89638,0.4707 -6.42232,0.49815 -2.34422,0.0142 -4.51239,0.0115 -4.81816,-0.006 z m 10.09961,-2.85131 c 0.50962,-0.0794 1.09336,-0.19175 1.2972,-0.24969 1.30343,-0.37049 1.89369,-1.16456 1.89744,-2.5526 0.002,-0.64487 -0.0348,-0.82424 -0.25278,-1.2409 -0.59745,-1.14202 -1.77551,-1.55001 -5.07297,-1.75687 -2.79698,-0.17546 -7.88809,-0.0689 -9.13026,0.19113 -1.45641,0.30487 -2.14124,1.20187 -2.15282,2.81981 -0.009,1.19266 0.4788,2.07069 1.36745,2.46378 0.9055,0.40055 3.05409,0.5412 7.64553,0.50049 2.55617,-0.0227 3.71957,-0.069 4.40121,-0.17515 z M 94.202929,212.82689 v -13.57425 h 1.528841 1.528841 v 5.51309 c 0,3.0322 0.03467,5.5131 0.07705,5.5131 0.04238,0 0.210303,-0.20565 0.373165,-0.45698 0.819239,-1.2643 2.164093,-1.96447 4.460604,-2.32231 1.35081,-0.21048 4.8406,-0.31063 6.96999,-0.20002 3.03028,0.15741 4.06011,0.34729 5.42691,1.00059 1.51443,0.72387 2.39906,1.87425 2.74504,3.56964 0.23752,1.16395 0.32813,3.70988 0.33001,9.27311 l 0.002,5.25829 h -1.51705 -1.51705 l -0.0517,-5.90689 c -0.0292,-3.34233 -0.0942,-6.20859 -0.14973,-6.60181 -0.19219,-1.36184 -0.73004,-2.33694 -1.60626,-2.91208 -1.21154,-0.79525 -2.77031,-1.01562 -6.74038,-0.95295 -2.00437,0.0316 -3.07312,0.0879 -3.67586,0.19356 -2.32581,0.40762 -3.763742,1.2336 -4.476909,2.57164 -0.569294,1.0681 -0.579974,1.19981 -0.624524,7.70164 l -0.04047,5.90689 H 95.724279 94.20311 Z m 51.147631,12.06858 9.5e-4,-1.50567 8.19973,-6.62498 8.19973,-6.62498 -7.87638,-0.0237 -7.87638,-0.0237 v -1.29668 -1.29668 h 10.19227 10.19227 v 1.37355 1.37355 l -8.24212,6.71078 -8.24212,6.71078 8.33478,0.0237 8.33478,0.0237 v 1.34304 1.34303 H 155.95884 145.34961 Z M 58.642473,205.47583 c -0.615923,-0.21914 -1.427291,-0.77337 -1.770753,-1.20958 -1.632295,-2.07303 -0.97718,-5.04784 1.35491,-6.1525 0.597966,-0.28324 0.680215,-0.2973 1.739527,-0.2973 1.032192,0 1.150055,0.0187 1.644445,0.26144 1.311046,0.64359 2.172056,1.88926 2.267405,3.28038 0.118888,1.73453 -0.670684,3.14798 -2.173356,3.89064 -0.650932,0.32171 -0.77089,0.34912 -1.637399,0.37416 -0.731279,0.0211 -1.041725,-0.0109 -1.424779,-0.14724 z"
       id="path1" /></g></svg>
