<?xml version="1.0" encoding="UTF-8" standalone="no"?>
<!-- Created with Inkscape (http://www.inkscape.org/) -->

<svg
   width="40.149784mm"
   height="38.008026mm"
   viewBox="0 0 40.149784 38.008026"
   version="1.1"
   id="svg1"
   xml:space="preserve"
   xmlns="http://www.w3.org/2000/svg"
   xmlns:svg="http://www.w3.org/2000/svg"><defs
     id="defs1" /><g
     id="layer1"
     transform="translate(-32.232425,-197.81645)">
     
     <path
   class="g"
   style="fill:#000000"
   d="m 68.166304,235.7707 c -0.425931,-0.13956 -0.9822,-0.45816 -1.261313,-0.72242 -0.15201,-0.14392 -1.791121,-2.27462 -3.642469,-4.7349 -2.494724,-3.31527 -3.405033,-4.46127 -3.51654,-4.42702 -0.388648,0.11938 -2.575574,0.32797 -4.485153,0.42778 -2.465471,0.12888 -12.267364,0.0663 -14.243035,-0.0909 -3.961582,-0.31526 -5.354096,-0.73892 -6.633339,-2.01817 -1.69099,-1.69099 -2.237543,-4.81607 -2.141456,-12.24439 0.09005,-6.96151 0.706197,-9.51084 2.652238,-10.9737 1.413086,-1.06224 3.503759,-1.4966 8.392655,-1.74366 2.059181,-0.10406 10.640816,-0.0535 11.308391,0.0667 l 0.282205,0.0508 -0.23097,0.66403 c -0.184313,0.52989 -0.231961,0.85119 -0.235876,1.59059 l -0.0049,0.92657 -5.60575,4.1e-4 c -5.914953,4.2e-4 -7.565742,0.076 -9.312032,0.42643 -1.033122,0.2073 -1.811741,0.52363 -2.212241,0.89876 -0.589884,0.55253 -0.990555,1.78982 -1.167486,3.60527 -0.264415,2.7131 -0.18757,9.35954 0.134762,11.65577 0.36044,2.56769 1.225364,3.34692 4.057156,3.65517 2.99885,0.32644 14.531204,0.36628 16.918909,0.0584 3.62665,-0.46756 4.187391,-1.17191 4.340376,-5.45196 l 0.05547,-1.552 h -7.056058 -7.056059 v -1.6215 -1.6215 h 8.941404 c 7.092389,0 8.941001,0.024 8.939457,0.11582 -0.03097,1.8438 -0.202737,6.07094 -0.276757,6.81106 -0.124505,1.24493 -0.37793,2.33543 -0.741036,3.18872 -0.154487,0.36304 -0.269692,0.66686 -0.256009,0.67514 0.08206,0.0497 6.453957,5.94892 7.050753,6.52772 0.398858,0.38683 0.836663,0.91181 0.972899,1.16662 0.223356,0.41775 0.247702,0.55891 0.247702,1.43618 0,0.88743 -0.02289,1.01635 -0.260476,1.46746 -0.334337,0.63479 -0.935123,1.2332 -1.561393,1.5552 -0.412236,0.21195 -0.633365,0.2587 -1.32847,0.28085 -0.458653,0.0146 -0.938153,-0.008 -1.065556,-0.0493 z m -1.120501,-3.27735 c -1.093545,-1.76387 -3.58598,-4.85805 -4.376864,-5.43357 -0.366806,-0.26692 1.148674,1.95184 2.398075,3.51094 0.778862,0.97192 2.319531,2.68705 2.413728,2.68705 0.02144,0 -0.174284,-0.34399 -0.434939,-0.76442 z m -8.40333,-27.01752 c -0.615923,-0.21914 -1.427291,-0.77337 -1.770753,-1.20958 -1.632295,-2.07303 -0.97718,-5.04784 1.35491,-6.1525 0.597966,-0.28324 0.680215,-0.2973 1.739527,-0.2973 1.032192,0 1.150055,0.0187 1.644445,0.26144 1.311046,0.64359 2.172056,1.88926 2.267405,3.28038 0.118888,1.73453 -0.670684,3.14798 -2.173356,3.89064 -0.650932,0.32171 -0.77089,0.34912 -1.637399,0.37416 -0.731279,0.0211 -1.041725,-0.0109 -1.424779,-0.14724 z"
   id="path1" /></g></svg>
